<svg width="164" height="42" viewBox="0 0 164 42" fill="none" xmlns="http://www.w3.org/2000/svg">
<path fill-rule="evenodd" clip-rule="evenodd" d="M164 41.0945H162.872L161.181 38.7651V41.0945H160.281V36.4462H161.181V38.3873L162.833 36.4462H163.882L161.973 38.5858L164 41.0945ZM156.939 38.7651C156.939 38.2782 156.8 37.8799 156.532 37.5914C156.256 37.293 155.9 37.1431 155.454 37.1431C155.009 37.1431 154.643 37.293 154.377 37.5914C154.099 37.8799 153.96 38.2782 153.96 38.7651C153.96 39.2533 154.099 39.6414 154.377 39.9401C154.653 40.2386 155.009 40.3874 155.454 40.3874C155.9 40.3874 156.256 40.2386 156.532 39.9401C156.8 39.6414 156.939 39.2533 156.939 38.7651ZM157.908 38.7651C157.908 39.4724 157.67 40.0593 157.196 40.5269C156.73 40.9944 156.147 41.2339 155.454 41.2339C154.762 41.2339 154.178 40.9944 153.703 40.5269C153.238 40.0593 153.002 39.4724 153.002 38.7651C153.002 38.0592 153.238 37.4712 153.703 37.0137C154.178 36.536 154.762 36.3075 155.454 36.3075C156.147 36.3075 156.73 36.536 157.196 37.0137C157.67 37.4712 157.908 38.0592 157.908 38.7651ZM149.905 39.6711C149.905 39.2137 149.678 38.9843 149.223 38.9843H148.561V40.3077H149.144C149.658 40.3077 149.905 40.0989 149.905 39.6711ZM149.608 37.7005C149.608 37.3825 149.401 37.2225 149.006 37.2225H148.561V38.2386H149.125C149.451 38.2386 149.608 38.0592 149.608 37.7005ZM150.855 39.6711C150.855 40.0796 150.726 40.4076 150.479 40.6563C150.203 40.9445 149.777 41.0945 149.214 41.0945H147.66V36.4462H149.046C150.034 36.4462 150.529 36.8549 150.529 37.6607C150.529 38.0693 150.371 38.3576 150.054 38.5369C150.301 38.6164 150.509 38.7651 150.648 38.9843C150.786 39.1839 150.855 39.4123 150.855 39.6711ZM143.636 39.3225L143.041 37.9887L142.458 39.3225H143.636ZM145.346 41.0945H144.406L143.951 40.0593H142.142L141.676 41.0945H140.737L143.041 36.218L145.346 41.0945ZM139.283 37.243H138.155V41.0945H137.245V37.243H136.108V36.4462H139.283V37.243ZM133.793 40.9445C133.418 41.134 132.982 41.2339 132.478 41.2339C131.766 41.2339 131.173 40.9852 130.717 40.5075C130.273 40.04 130.045 39.462 130.045 38.7651C130.045 38.0988 130.273 37.5212 130.717 37.0536C131.183 36.5562 131.776 36.3075 132.498 36.3075C132.992 36.3075 133.428 36.3963 133.793 36.5857V37.5813C133.368 37.293 132.933 37.1431 132.498 37.1431C132.082 37.1431 131.737 37.3019 131.439 37.6107C131.142 37.9299 130.995 38.3076 130.995 38.7651C130.995 39.2432 131.133 39.6313 131.41 39.9401C131.687 40.2386 132.042 40.3874 132.488 40.3874C132.903 40.3874 133.339 40.2487 133.793 39.9501V40.9445ZM126.949 38.7651C126.949 38.2782 126.821 37.8799 126.543 37.5914C126.267 37.293 125.91 37.1431 125.466 37.1431C125.02 37.1431 124.664 37.293 124.388 37.5914C124.11 37.8799 123.982 38.2782 123.982 38.7651C123.982 39.2533 124.11 39.6414 124.388 39.9401C124.664 40.2386 125.02 40.3874 125.466 40.3874C125.91 40.3874 126.267 40.2386 126.543 39.9401C126.821 39.6414 126.949 39.2533 126.949 38.7651ZM127.919 38.7651C127.919 39.4724 127.681 40.0593 127.217 40.5269C126.742 40.9944 126.158 41.2339 125.466 41.2339C124.773 41.2339 124.189 40.9944 123.724 40.5269C123.249 40.0593 123.012 39.4724 123.012 38.7651C123.012 38.0592 123.249 37.4712 123.724 37.0137C124.189 36.536 124.773 36.3075 125.466 36.3075C126.158 36.3075 126.742 36.536 127.217 37.0137C127.681 37.4712 127.919 38.0592 127.919 38.7651ZM120.639 41.0945H119.739V37.243H117.839V41.0945H116.939V36.4462H120.639V41.0945ZM110.115 39.3225L109.521 37.9887L108.938 39.3225H110.115ZM111.826 41.0945H110.886L110.431 40.0593H108.622L108.156 41.0945H107.216L109.521 36.218L111.826 41.0945ZM104.893 41.0945H103.993V38.9945H102.024V41.0945H101.115V36.4462H102.024V38.2181H103.993V36.4462H104.893V41.0945ZM98.4931 41.0945H97.5931V38.208L94.6849 41.3237V36.4462H95.5953V39.3225L98.4931 36.218V41.0945ZM92.3803 41.0945H91.471V37.2124H90.1456V39.5619C90.1456 40.1387 90.0667 40.5471 89.8987 40.8062C89.7205 41.0546 89.4429 41.184 89.038 41.184C88.8789 41.184 88.7107 41.1545 88.5629 41.0843V40.2883C88.7018 40.3681 88.8304 40.4076 88.949 40.4076C89.0572 40.4076 89.1361 40.3577 89.1756 40.2782C89.2454 40.1488 89.2747 39.9105 89.2747 39.5418V36.4462H92.3803V41.0945ZM86.4659 41.0945H85.5557V37.243H83.6674V41.0945H82.7569V36.4462H86.4659V41.0945ZM80.4423 41.0945H79.533V38.208L76.6349 41.3237V36.4462H77.5443V39.3225L80.4423 36.218V41.0945ZM74.4681 42.0001H73.5781V41.0945H70.3643V36.4462H71.2736V40.3077H73.0838V36.4462H73.9931V40.3077H74.4681V42.0001ZM68.0294 40.9445C67.6535 41.134 67.2182 41.2339 66.7139 41.2339C66.0021 41.2339 65.4088 40.9852 64.953 40.5075C64.5087 40.04 64.2807 39.462 64.2807 38.7651C64.2807 38.0988 64.5087 37.5212 64.953 37.0536C65.4188 36.5562 66.0121 36.3075 66.7343 36.3075C67.2383 36.3075 67.6636 36.3963 68.0294 36.5857V37.5813C67.6039 37.293 67.1685 37.1431 66.7343 37.1431C66.3181 37.1431 65.9728 37.3019 65.6751 37.6107C65.3783 37.9299 65.2306 38.3076 65.2306 38.7651C65.2306 39.2432 65.3692 39.6313 65.6456 39.9401C65.9232 40.2386 66.2785 40.3874 66.724 40.3874C67.1392 40.3874 67.5746 40.2487 68.0294 39.9501V40.9445ZM61.9073 41.0945H61.007V38.208L58.0991 41.3237V36.4462H59.0092V39.3225L61.9073 36.218V41.0945ZM54.5184 40.3077V37.2225H53.0939V39.4825C53.0939 39.7708 53.0351 40.0489 52.9258 40.3077H54.5184ZM55.9128 42.0001H55.0126V41.0945H52.4317V42.0001H51.5317V40.3077C51.7887 40.3077 51.9668 40.2487 52.056 40.1295C52.1541 40.0094 52.2039 39.7607 52.2039 39.3927V36.4462H55.4389V40.3077H55.9128V42.0001ZM45.37 38.4563V37.2124H44.8456C44.3017 37.2124 44.0245 37.412 44.0245 37.83C44.0245 38.0488 44.0739 38.1988 44.1823 38.2975C44.3017 38.4075 44.4992 38.4563 44.796 38.4563H45.37ZM46.2793 41.0945H45.37V39.2137H45.0631L43.9555 41.0945H42.937L44.1823 39.1532C43.8562 39.0842 43.5991 38.9344 43.4117 38.7255C43.2033 38.4869 43.1048 38.208 43.1048 37.8695C43.1048 37.4223 43.2527 37.0737 43.5594 36.8252C43.8562 36.5756 44.2817 36.4462 44.8353 36.4462H46.2793V41.0945ZM38.9008 39.3225L38.3075 37.9887L37.7242 39.3225H38.9008ZM40.612 41.0945H39.6723L39.2176 40.0593H37.3981L36.9424 41.0945H36.003L38.3075 36.218L40.612 41.0945ZM33.6789 41.0945H32.7787V38.9945H30.8103V41.0945H29.9002V36.4462H30.8103V38.2181H32.7787V36.4462H33.6789V41.0945ZM27.5164 39.7107C27.5164 40.1693 27.3585 40.537 27.0518 40.8163C26.7449 41.0945 26.3299 41.2339 25.7963 41.2339C25.3112 41.2339 24.9051 41.0945 24.6083 40.8163C24.2825 40.5269 24.1243 40.1295 24.1243 39.6212H25.0245C25.0245 39.9594 25.0933 40.1988 25.2322 40.3181C25.3405 40.4178 25.5287 40.4576 25.7963 40.4576C26.3195 40.4576 26.5767 40.1988 26.5767 39.6711C26.5767 39.2032 26.3195 38.965 25.7963 38.965H25.3213V38.208H25.7262C25.9734 38.208 26.1415 38.1581 26.2509 38.0693C26.3499 37.9795 26.4088 37.83 26.4088 37.6211C26.4088 37.2532 26.2012 37.0638 25.8052 37.0638C25.3801 37.0638 25.1722 37.2532 25.1722 37.6211H24.2825C24.2825 37.2124 24.4312 36.8843 24.728 36.646C25.0044 36.4168 25.3609 36.3075 25.7963 36.3075C26.3095 36.3075 26.7053 36.437 26.9727 36.705C27.2199 36.9343 27.3381 37.243 27.3381 37.6107C27.3381 38.0693 27.1611 38.3769 26.8046 38.5369C27.2796 38.755 27.5164 39.1431 27.5164 39.7107ZM21.928 41.0945H19.2682V36.4462H21.928V37.243H20.1775V38.2386H21.7409V38.9945H20.1775V40.2883H21.928V41.0945ZM16.9532 41.0945H16.0532V37.2124H14.7276V39.5619C14.7276 40.1387 14.6387 40.5471 14.4704 40.8062C14.3026 41.0546 14.0158 41.184 13.62 41.184C13.4519 41.184 13.294 41.1545 13.135 41.0843V40.2883C13.2738 40.3681 13.4025 40.4076 13.5311 40.4076C13.6404 40.4076 13.709 40.3577 13.7586 40.2782C13.8175 40.1488 13.848 39.9105 13.848 39.5418V36.4462H16.9532V41.0945ZM10.8112 41.0945H8.15016V36.4462H10.8112V37.243H9.06028V38.2386H10.6229V38.9945H9.06028V40.2883H10.8112V41.0945ZM6.11282 41.0945H5.03445L3.50148 38.7651V41.0945H2.60142V38.7651L1.07837 41.0945H0L1.80025 38.5858L0.0393202 36.4462H1.09875L2.60142 38.4075V36.4462H3.50148V38.4075L5.01525 36.4462H6.06318L4.31257 38.5858L6.11282 41.0945Z" fill="#00A2D0"/>
<path fill-rule="evenodd" clip-rule="evenodd" d="M85.8824 10.5799C85.8824 8.30046 84.4972 7.15621 81.7279 7.15621H79.9082V14.0133H81.649C84.478 14.0133 85.8824 12.8693 85.8824 10.5799ZM91.1143 19.6663C89.2655 20.6615 86.9306 21.1589 84.0922 21.1589H79.9082V25.3291H70.1562V0.000732422H83.3107C87.5147 0.000732422 90.6992 1.02576 92.8752 3.06543C94.6858 4.73758 95.674 6.98717 95.8622 9.82368H99.9966V13.2075C101.441 10.64 103.508 9.35612 106.178 9.35612C106.851 9.35612 107.622 9.50492 108.454 9.82368L108.315 11.2962C110.58 9.74337 113.329 8.97716 116.584 8.97716C120.52 8.97716 123.734 10.1223 126.227 12.4211L126.356 12.54V9.82368H135.228V12.4413C136.869 10.1315 139.056 8.97716 141.805 8.97716C144.832 8.97716 147.087 10.2417 148.551 12.7694C150.272 10.2417 152.626 8.97716 155.613 8.97716C160.756 8.97716 163.318 12.2018 163.318 18.6616V24.9909V31.9081H154.445V19.5764C154.445 17.1883 153.684 15.994 152.171 15.994C151.3 15.994 150.608 16.3825 150.074 17.1588C149.539 17.9251 149.273 19.0191 149.273 20.4234V31.9081H140.401V19.5764C140.401 17.1883 139.609 15.994 138.037 15.994C136.167 15.994 135.228 17.547 135.228 20.6321V31.9081H126.356V29.1713L126.227 29.2905C123.734 31.5994 120.52 32.7538 116.584 32.7538C112.617 32.7538 109.403 31.5994 106.91 29.2905C104.507 27.0216 103.301 24.2042 103.301 20.8115C103.301 19.3778 103.517 18.0339 103.953 16.8103C102.884 16.9987 102.034 17.4971 101.401 18.2927C100.571 19.3576 100.165 20.7809 100.165 22.5822V31.9081H91.1143V19.6663Z" fill="#00A2D0"/>
<path fill-rule="evenodd" clip-rule="evenodd" d="M48.6348 29.7086L56.4679 16.9298H48.6348V29.7086ZM28.5963 31.9085H19.0021L9.84344 17.7356V31.9085H0.0905457V0H9.84344V13.377L18.8836 0H30.1088L18.9028 15.3965L22.2068 19.9549C22.3546 16.7303 23.3835 14.1034 25.2628 12.0933C27.211 10.0126 29.6746 8.97748 32.6514 8.97748C35.7074 8.97748 38.0718 10.1421 39.7231 12.4803V9.82321H48.4372H48.6348H70.3058L61.1662 24.8018H89.4837L89.5041 31.9085H48.6348H47.2903H39.931V29.0821C38.4079 31.5305 36.0141 32.7541 32.7305 32.7541C31.2268 32.7541 29.8516 32.476 28.5963 31.9085ZM40.0199 20.8106C40.0199 19.4575 39.6048 18.3724 38.7733 17.5462C37.9433 16.7109 36.9042 16.2929 35.6384 16.2929C34.2737 16.2929 33.1953 16.7005 32.4045 17.5167C31.6226 18.343 31.2268 19.4575 31.2268 20.8505C31.2268 22.2238 31.6226 23.3294 32.4045 24.1545C33.1953 24.981 34.2636 25.3896 35.5991 25.3896C36.9143 25.3896 37.9725 24.981 38.7937 24.1545C39.6048 23.3294 40.0199 22.2149 40.0199 20.8106Z" fill="#E3B02C"/>
<path fill-rule="evenodd" clip-rule="evenodd" d="M118.097 12.8093C118.146 13.0976 118.236 13.9342 118.176 14.202C118.126 14.4812 117.929 14.6707 117.731 14.6312C117.543 14.5904 117.435 14.3417 117.483 14.0636C117.543 13.7944 117.939 13.058 118.097 12.8093ZM119.611 13.2667C119.6 13.5654 119.531 14.4018 119.422 14.6606C119.313 14.9093 119.086 15.0589 118.908 14.9887C118.73 14.9093 118.671 14.6401 118.769 14.3813C118.879 14.133 119.412 13.4857 119.611 13.2667ZM121.005 14.0238C120.945 14.312 120.708 15.1181 120.549 15.3474C120.401 15.5764 120.144 15.6755 119.986 15.5663C119.818 15.4563 119.818 15.1781 119.966 14.9489C120.124 14.7198 120.777 14.1931 121.005 14.0238ZM122.231 15.0283C122.113 15.3076 121.727 16.0444 121.529 16.243C121.341 16.4325 121.064 16.4813 120.926 16.3426C120.797 16.2032 120.837 15.9342 121.034 15.7356C121.232 15.546 121.974 15.1475 122.231 15.0283ZM123.24 16.2624C123.072 16.5119 122.548 17.1589 122.32 17.3076C122.083 17.4665 121.816 17.4576 121.707 17.2975C121.598 17.1283 121.698 16.8796 121.924 16.7207C122.152 16.5711 122.963 16.3325 123.24 16.2624ZM123.982 17.6663C123.774 17.8752 123.131 18.412 122.884 18.512C122.627 18.6221 122.36 18.562 122.281 18.3826C122.212 18.2033 122.36 17.9649 122.607 17.865C122.864 17.7558 123.695 17.6764 123.982 17.6663ZM124.447 19.1987C124.2 19.3576 123.468 19.7559 123.2 19.8059C122.924 19.8659 122.677 19.7458 122.637 19.5572C122.597 19.3678 122.795 19.169 123.062 19.1089C123.329 19.059 124.16 19.1488 124.447 19.1987ZM124.605 20.7809C124.328 20.891 123.536 21.1397 123.26 21.1397C122.983 21.1397 122.756 20.9807 122.756 20.7809C122.756 20.5822 122.983 20.4234 123.26 20.4234C123.536 20.4234 124.338 20.6821 124.605 20.7809ZM124.447 22.3633C124.16 22.4234 123.329 22.5029 123.062 22.4528C122.795 22.3939 122.607 22.1941 122.637 22.0058C122.677 21.8164 122.934 21.7071 123.2 21.756C123.468 21.806 124.21 22.2146 124.447 22.3633ZM123.992 23.8967C123.695 23.8865 122.864 23.8071 122.617 23.7072C122.36 23.5983 122.212 23.369 122.291 23.1796C122.36 23.0011 122.627 22.941 122.884 23.0501C123.142 23.1601 123.785 23.6971 123.992 23.8967ZM123.24 25.2997C122.953 25.2396 122.162 25.0011 121.934 24.8423C121.698 24.6924 121.609 24.4336 121.707 24.2747C121.816 24.1055 122.092 24.1055 122.32 24.2542C122.548 24.4042 123.072 25.0611 123.24 25.2997ZM122.241 26.5336C121.974 26.4143 121.232 26.0261 121.045 25.8275C120.847 25.6278 120.797 25.3598 120.935 25.2203C121.074 25.0809 121.341 25.1305 121.539 25.3292C121.737 25.5187 122.123 26.2647 122.241 26.5336ZM121.015 27.5493C120.777 27.3792 120.124 26.8423 119.976 26.613C119.818 26.3848 119.827 26.116 119.986 26.0059C120.155 25.8968 120.412 25.9967 120.559 26.2248C120.718 26.4541 120.945 27.26 121.015 27.5493ZM119.62 28.2954C119.412 28.0863 118.888 27.4393 118.779 27.1805C118.671 26.9319 118.73 26.663 118.908 26.5836C119.096 26.5142 119.323 26.6528 119.432 26.9117C119.531 27.1705 119.611 28.0069 119.62 28.2954ZM118.107 28.763C117.948 28.5143 117.553 27.7778 117.493 27.4994C117.444 27.2306 117.553 26.9819 117.74 26.9423C117.939 26.9025 118.136 27.091 118.186 27.37C118.236 27.638 118.146 28.4747 118.107 28.763ZM116.524 28.9229C116.415 28.6436 116.178 27.8378 116.178 27.5686C116.178 27.2906 116.336 27.0615 116.524 27.0615C116.722 27.0615 116.881 27.2906 116.881 27.5686C116.881 27.8378 116.624 28.6436 116.524 28.9229ZM114.952 28.763C114.902 28.4747 114.813 27.638 114.863 27.37C114.921 27.091 115.12 26.9025 115.307 26.9423C115.495 26.9819 115.614 27.2306 115.555 27.5086C115.506 27.7778 115.1 28.5143 114.952 28.763ZM113.428 28.3055C113.438 28.0069 113.517 27.1705 113.626 26.9117C113.726 26.663 113.962 26.5142 114.141 26.5836C114.319 26.663 114.378 26.9319 114.269 27.191C114.17 27.4393 113.626 28.0863 113.428 28.3055ZM112.034 27.5493C112.103 27.26 112.34 26.4541 112.489 26.2248C112.647 25.9967 112.894 25.8968 113.062 26.0059C113.22 26.116 113.23 26.394 113.072 26.6234C112.924 26.8524 112.272 27.3792 112.034 27.5493ZM110.807 26.5437C110.926 26.2647 111.322 25.5291 111.509 25.3292C111.708 25.1409 111.975 25.091 112.113 25.2304C112.251 25.3691 112.202 25.6379 112.014 25.8367C111.816 26.0261 111.075 26.4246 110.807 26.5437ZM109.808 25.3098C109.976 25.0611 110.501 24.4143 110.728 24.2646C110.955 24.1055 111.233 24.1159 111.341 24.2747C111.44 24.444 111.351 24.6924 111.114 24.8515C110.886 25.0011 110.085 25.2396 109.808 25.3098ZM109.057 23.906C109.264 23.6971 109.907 23.1601 110.165 23.0602C110.422 22.9511 110.689 23.0103 110.758 23.1896C110.837 23.369 110.689 23.6073 110.432 23.7072C110.175 23.8163 109.343 23.8966 109.057 23.906ZM108.592 22.3734C108.839 22.2146 109.581 21.8164 109.847 21.7664C110.115 21.7071 110.362 21.8265 110.401 22.0147C110.442 22.2045 110.253 22.4031 109.986 22.4632C109.71 22.5133 108.878 22.4234 108.592 22.3734ZM108.443 20.7913C108.71 20.6821 109.511 20.4326 109.789 20.4326C110.056 20.4326 110.283 20.5926 110.283 20.7913C110.283 20.9897 110.056 21.1397 109.789 21.1397C109.511 21.1397 108.71 20.891 108.443 20.7913ZM108.592 19.1987C108.889 19.1488 109.71 19.0694 109.986 19.1191C110.253 19.1794 110.442 19.3781 110.401 19.5676C110.362 19.7559 110.115 19.8659 109.847 19.816C109.571 19.7559 108.839 19.3576 108.592 19.1987ZM109.057 17.6764C109.343 17.6856 110.175 17.7651 110.432 17.865C110.689 17.9751 110.827 18.2033 110.758 18.3826C110.679 18.5721 110.411 18.6313 110.165 18.522C109.907 18.412 109.264 17.8752 109.057 17.6764ZM109.799 16.2724C110.085 16.3325 110.886 16.5711 111.114 16.7308C111.341 16.8796 111.44 17.1384 111.332 17.2975C111.222 17.4665 110.955 17.4665 110.718 17.3177C110.491 17.1681 109.967 16.5018 109.799 16.2724ZM110.807 15.0387C111.075 15.1576 111.807 15.546 112.004 15.7457C112.202 15.9443 112.241 16.2133 112.103 16.352C111.975 16.4914 111.697 16.4415 111.509 16.243C111.312 16.0533 110.926 15.2975 110.807 15.0387ZM112.024 14.0238C112.272 14.1931 112.914 14.7198 113.072 14.9593C113.22 15.1882 113.211 15.4563 113.052 15.5663C112.894 15.6755 112.637 15.5764 112.479 15.3474C112.33 15.1181 112.093 14.312 112.024 14.0238ZM113.428 13.2769C113.626 13.4857 114.16 14.133 114.269 14.3917C114.367 14.6401 114.309 14.9093 114.131 14.9887C113.952 15.0589 113.716 14.9194 113.616 14.6606C113.508 14.4018 113.438 13.5654 113.428 13.2769ZM114.942 12.8093C115.1 13.058 115.495 13.7944 115.545 14.0737C115.604 14.3417 115.495 14.5904 115.298 14.6312C115.11 14.6707 114.912 14.4812 114.863 14.202C114.803 13.9342 114.892 13.0976 114.942 12.8093ZM116.514 12.6504C116.624 12.9285 116.871 13.7251 116.871 14.0035C116.871 14.2826 116.712 14.5106 116.514 14.5106C116.327 14.5106 116.168 14.2826 116.168 14.0035C116.168 13.7251 116.415 12.9285 116.514 12.6504ZM116.514 15.0283L117.128 15.0589L117.622 15.1383L118.225 15.2874L118.69 15.4664L119.254 15.7356L119.679 16.0044L120.174 16.3725L120.54 16.7107L120.955 17.1681L121.252 17.5869L121.569 18.1137L121.776 18.5721L121.984 19.1589L122.103 19.6563L122.192 20.2633L122.212 20.7708L122.181 21.3882L122.103 21.8958L121.955 22.4928L121.776 22.9705L121.519 23.5278L121.252 23.9559L120.886 24.4541L120.54 24.8322L120.084 25.2498L119.679 25.5484L119.155 25.8673L118.69 26.076L118.117 26.2849L117.622 26.4041L117.018 26.4941L116.514 26.5142L115.9 26.4837L115.396 26.4041L114.803 26.2555L114.328 26.076L113.774 25.8072L113.34 25.5484L112.845 25.1805L112.479 24.8322L112.063 24.3735L111.766 23.9559L111.45 23.4291L111.243 22.9705L111.035 22.3836L110.916 21.8958L110.827 21.2791L110.807 20.7708L110.837 20.1545L110.916 19.6563L111.065 19.05L111.243 18.5721L111.5 18.0146L111.766 17.5869L112.133 17.0887L112.479 16.7107L112.934 16.2927L113.34 16.0044L113.873 15.6755L114.328 15.4664L114.902 15.2575L115.396 15.1383L116.01 15.0488L116.514 15.0283Z" fill="#E3B02C"/>
</svg>
